<?xml version="1.0" standalone="no"?>
<!DOCTYPE svg PUBLIC "-//W3C//DTD SVG 20010904//EN"
 "http://www.w3.org/TR/2001/REC-SVG-20010904/DTD/svg10.dtd">
<svg version="1.0" xmlns="http://www.w3.org/2000/svg"
 width="821.000000pt" height="304.000000pt" viewBox="0 0 821.000000 304.000000"
 preserveAspectRatio="xMidYMid meet">

<g transform="translate(0.000000,304.000000) scale(0.100000,-0.100000)"
fill="#000000" stroke="none">
<path d="M3884 2708 c-8 -13 -7 -81 2 -109 3 -12 19 -16 58 -18 30 -1 87 -10
128 -21 230 -62 283 -72 350 -68 37 2 69 6 72 8 2 3 6 32 7 65 l3 60 -45 -3
c-46 -3 -221 31 -374 72 -98 27 -189 33 -201 14z"/>
<path d="M3717 2649 c-66 -68 -115 -216 -72 -216 8 0 15 5 15 10 0 6 3 7 6 4
4 -3 15 -2 25 3 12 7 20 7 24 0 4 -6 18 11 31 37 14 27 37 58 51 71 20 18 26
34 27 67 1 42 0 44 -19 31 -34 -22 -75 -89 -84 -136 l-9 -45 -1 38 c-1 48 18
94 59 140 18 20 27 37 21 37 -6 0 -11 -5 -11 -11 0 -8 -4 -8 -13 -1 -9 8 -22
0 -50 -29z"/>
<path d="M870 2677 c-3 -3 -34 -8 -70 -11 -36 -3 -80 -10 -99 -16 -19 -5 -37
-8 -39 -5 -8 8 -94 -59 -127 -100 -45 -55 -70 -109 -85 -178 -15 -76 -6 -126
36 -188 19 -28 34 -54 34 -58 0 -23 65 -100 101 -120 49 -28 132 -33 152 -10
6 8 29 27 49 42 56 41 88 89 97 145 7 43 4 55 -18 93 l-26 43 -7 -43 c-9 -55
-34 -97 -78 -131 -36 -29 -80 -47 -79 -33 0 4 21 22 47 38 51 33 86 92 96 160
l5 40 -35 -43 c-80 -95 -176 -107 -246 -30 -44 49 -55 91 -39 155 21 82 54
127 133 181 45 30 108 56 116 47 7 -6 8 -5 -53 -40 -114 -65 -164 -128 -179
-223 -5 -34 -2 -48 13 -67 l19 -25 13 48 c16 57 95 146 154 173 42 19 100 25
109 11 3 -5 34 -5 70 0 35 5 103 5 150 0 86 -8 86 -8 113 20 14 15 30 25 35
22 4 -3 8 -1 8 5 0 6 6 8 13 5 7 -2 21 4 30 14 25 28 8 37 -103 56 -103 17
-302 32 -310 23z"/>
<path d="M1340 2613 c0 -7 12 -37 26 -67 26 -51 29 -54 73 -59 45 -5 126 4
138 16 3 4 -5 32 -19 63 l-24 57 -97 1 c-71 1 -97 -2 -97 -11z"/>
<path d="M3640 2249 c0 -84 74 -180 177 -232 59 -30 155 -61 386 -126 202 -57
283 -92 350 -151 47 -42 107 -147 107 -188 0 -26 19 -39 32 -21 8 12 9 11 5
-1 -2 -8 -12 -15 -22 -15 -23 0 -32 -24 -14 -36 11 -8 11 -12 -5 -24 -16 -12
-16 -16 -4 -34 8 -12 18 -19 21 -16 4 3 5 2 2 -2 -11 -14 -32 -11 -31 4 0 9
-5 18 -13 21 -8 3 -11 0 -7 -7 4 -6 4 -11 -1 -11 -4 0 -26 -27 -47 -60 -22
-33 -48 -62 -58 -66 -16 -5 -17 -8 -6 -22 12 -15 11 -16 -4 -4 -14 12 -20 11
-38 -1 -11 -7 -18 -17 -15 -20 3 -4 2 -5 -1 -2 -4 2 -33 -10 -66 -26 -34 -17
-90 -37 -127 -45 -83 -17 -229 -18 -301 -1 -31 8 -62 11 -68 9 -7 -2 -21 3
-30 11 -9 8 -39 27 -65 42 -106 61 -206 192 -191 252 5 20 4 24 -6 18 -10 -6
-12 4 -8 52 7 72 33 136 78 187 35 39 103 80 123 73 7 -2 -6 -13 -28 -24 -54
-28 -109 -85 -134 -139 -37 -78 -24 -115 19 -56 15 20 47 56 73 79 l46 42 88
-5 c48 -3 106 -10 129 -15 53 -14 138 -78 142 -107 5 -33 -22 -68 -68 -92 -51
-26 -96 -25 -152 3 -25 13 -50 21 -57 19 -19 -6 -13 -111 9 -147 35 -57 93
-89 170 -93 53 -3 72 -1 86 13 11 9 38 29 61 45 53 37 70 63 79 120 l7 45 -24
-35 c-26 -37 -83 -80 -105 -80 -24 0 -15 17 16 30 83 34 123 125 99 222 -7 27
-21 57 -31 68 -10 10 -18 23 -18 28 0 14 -99 84 -110 77 -6 -4 -9 -1 -8 7 2 7
-19 21 -52 32 -76 28 -273 29 -342 3 -27 -10 -48 -23 -48 -28 0 -6 -4 -8 -9
-5 -15 10 -108 -82 -129 -128 -12 -24 -24 -66 -27 -92 -10 -71 20 -258 51
-321 51 -106 207 -218 359 -259 130 -34 379 -28 425 12 8 7 45 24 83 39 92 37
181 96 248 166 59 61 122 170 134 229 6 32 3 30 -27 -23 -49 -85 -128 -169
-212 -225 -97 -65 -159 -89 -189 -73 -19 9 -19 10 -2 6 26 -6 191 76 187 94
-1 7 2 10 7 7 9 -6 57 27 78 54 10 12 9 17 -4 27 -17 13 -33 9 -33 -8 0 -6 5
-7 12 -3 7 4 8 3 4 -4 -4 -6 -13 -8 -22 -5 -13 5 -11 9 7 29 23 25 35 31 24
14 -9 -14 8 -12 25 3 12 10 12 9 2 -5 -8 -9 -9 -19 -4 -22 13 -8 30 15 27 37
-3 14 0 16 10 7 10 -8 17 -6 29 12 12 17 13 24 3 31 -8 6 -7 7 4 4 11 -4 23 7
38 34 12 21 17 39 12 39 -6 0 -11 -5 -11 -12 0 -6 -3 -8 -6 -5 -4 3 -15 2 -25
-3 -12 -7 -20 -7 -24 0 -4 6 7 13 24 16 17 4 31 11 31 16 0 5 5 6 10 3 10 -6
28 30 36 72 3 17 0 20 -16 16 -11 -3 -20 -9 -20 -13 0 -4 -13 -6 -30 -5 -16 1
-30 -2 -30 -7 0 -4 -4 -8 -9 -8 -4 0 -11 33 -14 73 -8 89 -21 131 -60 182 -71
95 -167 142 -457 221 -142 40 -316 99 -364 125 -29 16 -74 51 -100 79 l-46 49
0 -40z m435 -469 c3 -6 -1 -7 -9 -4 -18 7 -21 14 -7 14 6 0 13 -4 16 -10z
m682 -242 c-3 -8 -6 -5 -6 6 -1 11 2 17 5 13 3 -3 4 -12 1 -19z m-127 -152 c0
-3 -4 -8 -10 -11 -5 -3 -10 -1 -10 4 0 6 5 11 10 11 6 0 10 -2 10 -4z"/>
<path d="M1183 2104 c-67 -19 -75 -20 -83 -5 -7 11 -8 3 -4 -26 6 -41 4 -45
-46 -100 -76 -83 -77 -89 -42 -160 33 -65 62 -97 62 -69 0 16 66 96 80 96 4 0
11 -21 16 -47 4 -29 9 -40 12 -28 2 11 -1 50 -9 88 -15 80 -15 80 69 98 28 7
52 15 52 19 0 4 -7 27 -15 50 -22 62 -20 69 28 91 l42 19 -44 -2 c-25 -2 -78
-12 -118 -24z m-120 -202 c-51 -64 -74 -68 -27 -4 27 37 66 73 72 67 2 -1 -18
-30 -45 -63z"/>
<path d="M1350 2120 c0 -6 -16 -18 -35 -27 -40 -19 -42 -30 -18 -98 14 -41 17
-46 24 -28 8 21 64 47 81 37 5 -3 31 -7 58 -8 37 -1 55 -8 75 -26 l27 -25 -15
36 c-25 62 -66 118 -96 134 -34 17 -101 20 -101 5z"/>
<path d="M5530 1870 c-16 -59 -7 -140 16 -154 10 -6 56 -13 102 -16 97 -7 126
-24 161 -93 18 -37 24 -66 26 -133 1 -56 7 -89 16 -97 11 -10 11 -9 0 5 -10
14 -11 25 -2 50 6 18 14 71 18 118 8 112 -12 185 -62 228 -37 33 -64 41 -159
45 -59 2 -60 2 -82 45 l-23 43 -11 -41z"/>
<path d="M547 1869 c-85 -24 -125 -44 -205 -103 -152 -112 -228 -308 -177
-457 22 -62 151 -227 208 -266 86 -58 218 -81 362 -63 69 9 91 15 108 34 12
13 53 36 92 52 38 15 102 50 142 76 73 50 173 150 155 156 -6 2 -8 22 -6 48
l5 45 -78 -79 c-43 -43 -105 -96 -138 -117 -65 -43 -159 -84 -190 -85 -27 0
-9 13 55 40 128 53 266 167 339 280 48 75 88 195 95 290 4 41 3 67 -2 57 -4
-10 -10 -17 -12 -16 -4 2 -67 -29 -99 -48 -2 -1 -5 -41 -7 -88 -3 -63 -1 -85
9 -85 8 -1 7 -5 -3 -13 -9 -7 -24 -34 -34 -60 -23 -60 -82 -135 -148 -188 -99
-78 -202 -117 -330 -126 -112 -8 -191 9 -271 57 -56 34 -63 42 -75 86 -19 73
-11 179 18 237 44 87 174 190 219 172 9 -4 60 -6 114 -5 l97 1 0 -36 c0 -39
-27 -100 -57 -127 -26 -23 -120 -65 -165 -73 -21 -4 -38 -13 -38 -20 0 -7 17
-38 38 -70 l37 -57 64 4 c39 3 66 9 69 16 2 7 32 27 65 44 84 42 121 72 157
126 37 56 42 135 11 173 -21 26 -19 29 -41 -44 -22 -72 -127 -165 -217 -192
-43 -12 -22 10 36 38 142 70 214 200 165 302 -18 38 -74 81 -125 95 -53 16
-168 10 -242 -11z m-98 -102 c-115 -73 -160 -148 -167 -283 -4 -67 -1 -89 17
-129 12 -26 19 -50 16 -53 -3 -3 -15 17 -27 44 -32 68 -32 207 -1 275 38 84
154 189 207 189 14 0 -1 -15 -45 -43z"/>
<path d="M3171 1720 c-47 -11 -78 -37 -140 -116 -29 -38 -56 -69 -60 -68 -3 0
-27 35 -52 78 -45 76 -65 99 -81 90 -4 -3 -8 0 -8 5 0 6 -10 11 -23 11 -43 0
-101 -54 -226 -210 -125 -157 -172 -210 -182 -204 -8 5 -13 -10 -6 -20 3 -6
-35 -46 -44 -46 -4 0 2 23 13 52 21 56 27 164 11 193 -8 14 -12 7 -17 -33 -15
-112 -125 -256 -243 -316 -75 -37 -90 -32 -18 7 82 44 185 147 220 222 25 51
29 72 29 143 0 57 -4 86 -13 91 -7 5 -11 11 -9 14 7 12 -46 60 -89 79 -59 26
-179 27 -257 3 -31 -10 -56 -22 -56 -28 0 -6 -3 -8 -6 -4 -20 20 -187 -124
-306 -264 l-48 -56 30 -61 c34 -70 48 -82 66 -57 14 19 26 15 30 -10 1 -8 11
-27 22 -42 10 -15 24 -44 31 -64 13 -40 49 -78 101 -105 53 -28 200 -24 229 5
27 27 34 26 46 -1 17 -38 56 -34 159 16 86 42 104 57 211 168 64 66 148 160
186 208 38 48 76 91 85 94 25 10 57 -16 87 -72 l27 -51 -27 -43 c-51 -79 -83
-116 -114 -128 -39 -16 -72 -2 -94 40 l-16 30 -29 -21 c-43 -32 -56 -71 -40
-122 22 -74 31 -95 51 -112 23 -22 102 -32 121 -16 7 6 31 25 53 40 39 28 74
71 132 158 29 43 43 53 43 29 0 -21 115 -191 146 -215 27 -21 74 -29 74 -12 0
5 24 24 54 41 67 38 143 105 180 159 23 33 27 47 22 76 l-7 36 -70 -75 c-71
-76 -159 -141 -181 -133 -7 2 5 13 27 24 52 27 127 94 177 157 36 46 38 51 23
62 -15 11 -25 5 -74 -48 -103 -112 -140 -109 -225 17 l-56 84 29 43 c16 24 38
51 48 61 18 16 22 16 50 2 17 -9 37 -22 43 -31 11 -13 17 -10 42 18 37 43 66
99 61 118 -3 8 -7 21 -9 29 -3 9 -16 0 -40 -28 -20 -22 -41 -41 -47 -41 -6 0
1 12 15 28 33 35 58 74 58 88 0 25 -71 45 -119 34z m-1201 -80 c0 -5 -17 -18
-37 -29 -48 -24 -67 -45 -95 -106 -18 -41 -22 -68 -22 -143 0 -51 -4 -85 -7
-75 -4 10 -8 50 -8 90 -1 92 25 166 76 215 53 50 93 71 93 48z m1160 -29 c0
-5 -6 -11 -14 -14 -8 -3 -33 -35 -56 -71 -47 -72 -74 -91 -38 -25 42 74 108
142 108 110z m-416 -43 c-22 -24 -75 -88 -118 -143 -102 -130 -239 -266 -296
-292 -80 -38 -108 -36 -32 2 85 43 171 124 306 290 104 127 156 185 169 185 5
0 -8 -19 -29 -42z m-707 -4 c16 -22 27 -26 83 -28 44 -2 79 -10 109 -25 l44
-23 -5 -67 c-14 -196 -193 -304 -362 -219 l-39 20 6 72 c7 79 26 133 63 183
13 17 24 45 24 60 0 55 45 71 77 27z m-319 -163 c-6 -15 -79 -93 -84 -88 -6 6
65 97 77 97 6 0 9 -4 7 -9z m1196 -127 c-21 -31 -56 -76 -78 -101 -37 -42 -93
-80 -103 -69 -3 2 8 11 24 20 34 17 80 67 142 154 24 34 46 60 49 57 3 -2 -13
-30 -34 -61z"/>
<path d="M6497 1611 c-20 -57 -17 -71 16 -71 12 0 40 -11 62 -23 l40 -23 7
-109 c4 -61 6 -115 3 -122 -3 -9 4 -9 26 -1 16 5 29 14 29 20 0 6 -8 7 -17 4
-15 -6 -15 -5 -1 11 8 10 18 25 21 34 5 16 -9 221 -18 265 -7 30 -48 54 -103
61 l-47 5 -18 -51z"/>
<path d="M7148 1593 c-26 -48 -63 -162 -55 -169 2 -3 17 24 32 58 30 66 57
149 52 155 -2 2 -15 -18 -29 -44z"/>
<path d="M5198 1622 c-10 -2 -18 -8 -18 -13 0 -5 -3 -8 -7 -8 -20 3 -27 -2
-13 -11 23 -14 -5 -58 -36 -54 -13 1 -22 -2 -18 -7 3 -5 10 -6 16 -3 7 4 8 2
4 -4 -4 -6 -12 -9 -19 -6 -8 3 -22 -12 -33 -33 -33 -62 -48 -85 -71 -110 -22
-25 -38 -90 -31 -134 6 -46 32 -31 82 46 l50 76 23 -38 c43 -72 87 -204 88
-268 0 -45 4 -60 15 -62 27 -3 129 126 176 222 55 114 57 132 3 40 -43 -74
-114 -155 -137 -155 -7 0 -10 4 -7 10 3 6 -1 7 -9 4 -11 -4 -16 0 -16 10 0 15
7 17 51 21 9 0 24 7 34 15 17 14 75 94 75 104 0 5 -29 1 -61 -9 -19 -6 -28 10
-9 17 14 4 -4 108 -21 119 -8 5 -17 3 -22 -4 -5 -7 -6 -3 -2 11 5 17 1 24 -17
31 -23 10 -23 10 -1 10 29 1 37 16 17 35 -19 20 -24 20 -51 1 -15 -10 -23 -11
-25 -4 -3 8 -10 8 -25 -2 -17 -10 -19 -16 -11 -26 8 -11 7 -12 -6 -7 -10 4
-15 13 -11 22 3 8 -2 23 -11 33 -10 11 -13 19 -8 20 14 1 37 6 59 14 l20 7
-20 -13 c-11 -7 -23 -17 -27 -23 -10 -16 2 -28 16 -16 7 5 24 11 38 12 25 2
60 28 38 28 -6 0 -8 5 -5 10 3 6 2 10 -4 10 -5 0 -12 -6 -14 -12 -3 -7 -4 1
-4 17 2 25 -1 29 -18 27 -11 -2 -23 -9 -27 -15 -5 -7 -8 -3 -8 11 0 12 5 23
10 23 6 1 15 2 20 3 6 0 10 4 11 9 1 16 -7 23 -23 19z m-74 -174 c-9 -15 -85
-131 -91 -137 -2 -3 -9 1 -15 7 -9 9 -9 12 3 12 17 0 52 58 42 72 -3 7 -1 8 6
4 7 -4 18 5 29 23 9 17 21 31 25 31 5 0 5 -6 1 -12z m86 -42 c-14 -8 -29 -12
-34 -8 -10 6 20 20 44 21 8 0 4 -6 -10 -13z m20 -96 c0 -5 -4 -10 -10 -10 -5
0 -10 5 -10 10 0 6 5 10 10 10 6 0 10 -4 10 -10z m80 -59 c0 -14 -5 -18 -20
-14 -11 3 -17 9 -14 14 3 5 10 7 15 4 5 -4 9 -1 9 4 0 6 2 11 5 11 3 0 5 -9 5
-19z m-30 -44 c0 -7 -4 -7 -9 2 -8 12 -11 8 -16 -15 -11 -49 -13 -51 -14 -12
-1 21 4 38 12 41 16 6 27 -1 27 -16z"/>
<path d="M7439 1591 c-49 -32 -106 -88 -97 -97 3 -3 25 0 47 6 107 29 230 -45
261 -156 7 -24 10 -69 8 -101 l-5 -57 23 30 c48 60 67 171 44 254 -13 49 -66
109 -114 131 -61 27 -114 24 -167 -10z"/>
<path d="M5130 1595 c0 -5 5 -17 10 -25 5 -8 10 -10 10 -5 0 6 -5 17 -10 25
-5 8 -10 11 -10 5z"/>
<path d="M6368 1553 c-23 -26 -40 -63 -30 -63 12 0 25 17 40 53 13 31 11 34
-10 10z"/>
<path d="M5463 1495 c-8 -9 -9 -16 -3 -20 6 -3 13 1 16 10 9 21 2 26 -13 10z"/>
<path d="M7164 1448 c-31 -63 -32 -65 -23 -158 26 -290 59 -760 59 -839 0 -50
4 -91 9 -91 17 0 42 50 53 106 11 57 10 73 -38 769 -9 121 -19 233 -22 248 -7
27 -9 25 -38 -35z"/>
<path d="M5490 1459 c0 -5 -4 -8 -8 -5 -5 3 -19 -2 -31 -10 -26 -19 -18 -39
10 -24 14 8 19 7 19 -3 0 -7 -16 -19 -35 -26 -19 -7 -36 -17 -36 -22 -1 -5 -2
-15 -3 -21 -1 -7 -7 -19 -14 -27 -7 -7 -11 -18 -9 -24 7 -23 26 -17 41 12 19
36 20 44 4 35 -7 -4 -6 -1 2 7 8 8 20 21 28 29 12 13 13 13 8 -2 -3 -10 11
-33 36 -60 92 -98 138 -192 138 -278 0 -28 4 -50 10 -50 13 0 131 172 174 253
20 37 31 67 25 67 -6 0 -9 7 -6 15 4 8 2 17 -4 20 -5 4 -8 1 -7 -7 2 -8 -5
-12 -17 -11 -11 1 -14 0 -7 -3 19 -9 14 -24 -5 -17 -15 5 -16 3 -6 -7 10 -11
15 -11 28 0 31 26 14 -11 -48 -102 -42 -62 -69 -93 -81 -93 -33 0 -29 24 7 39
37 15 53 31 38 40 -5 3 -20 -3 -33 -13 -23 -19 -24 -19 -25 0 -1 10 5 20 13
20 23 2 28 4 42 12 7 5 12 3 12 -5 0 -13 27 21 28 35 0 5 8 14 16 20 14 10 12
12 -10 14 -18 1 -23 -2 -14 -7 10 -6 3 -13 -26 -25 -21 -10 -46 -21 -55 -26
-13 -6 -18 -2 -23 14 -3 12 0 25 7 29 8 5 6 9 -7 14 -15 6 -14 9 13 20 28 12
36 27 32 61 -1 6 3 14 9 18 17 10 11 24 -9 20 -10 -2 -37 -12 -59 -23 -32 -15
-44 -17 -51 -8 -8 9 3 17 44 30 56 17 74 31 59 46 -5 5 -35 -4 -66 -19 -54
-26 -78 -26 -78 1 0 11 -50 58 -61 58 -5 0 -9 -5 -9 -11z m190 -120 c0 -6 -4
-7 -10 -4 -5 3 -10 11 -10 16 0 6 5 7 10 4 6 -3 10 -11 10 -16z m-20 -19 c0
-16 -17 -20 -28 -7 -8 10 -6 13 9 14 10 1 19 -2 19 -7z"/>
<path d="M6157 1464 c-3 -3 -3 -13 0 -22 4 -9 2 -13 -4 -9 -6 4 -17 -1 -24
-10 -10 -12 -10 -14 -1 -9 11 7 17 -6 12 -29 -1 -5 8 -1 19 9 22 20 28 32 11
21 -5 -3 -10 -1 -10 4 0 6 5 11 11 11 8 0 9 4 0 13 -6 8 -8 17 -4 20 3 4 4 7
1 7 -2 0 -7 -3 -11 -6z"/>
<path d="M5587 1443 c-4 -3 -7 -13 -7 -22 1 -13 3 -13 11 2 11 19 8 33 -4 20z"/>
<path d="M6120 1391 c0 -7 -5 -9 -12 -5 -7 5 -8 3 -3 -5 5 -9 10 -10 18 -2 6
6 8 14 4 18 -4 3 -7 1 -7 -6z"/>
<path d="M6166 1378 c-10 -15 -21 -26 -25 -24 -4 3 -13 0 -21 -6 -12 -8 -12
-9 3 -4 24 8 22 2 -18 -59 -65 -97 -170 -177 -238 -181 -23 -1 -55 -6 -71 -10
-21 -5 -27 -4 -22 5 4 6 3 11 -3 11 -15 0 -28 -29 -36 -84 l-7 -49 35 7 c61
11 177 75 226 124 26 26 71 82 99 125 48 71 76 102 53 59 -14 -27 14 -158 44
-204 43 -65 96 -92 185 -96 70 -4 81 -1 121 23 24 15 67 50 95 77 l51 50 7
-46 c4 -26 18 -58 31 -74 65 -75 247 16 338 170 l19 33 -28 -31 c-63 -68 -97
-85 -174 -87 -67 -2 -73 0 -95 25 -13 15 -27 48 -30 73 -4 25 -11 45 -16 45
-5 0 -9 -6 -9 -13 0 -8 -27 -40 -60 -72 -52 -48 -65 -56 -90 -53 -17 3 -30 0
-30 -5 0 -17 -143 -3 -185 19 -41 21 -109 109 -98 127 3 5 0 12 -6 16 -7 4
-15 37 -19 72 l-7 64 -19 -27z"/>
<path d="M6049 1302 c-16 -14 -27 -28 -24 -32 2 -4 -7 -18 -20 -30 -33 -31
-32 -42 2 -29 38 14 54 29 46 43 -16 25 -12 38 13 33 17 -3 28 2 39 19 14 21
13 23 -6 21 -11 -1 -34 -12 -50 -25z"/>
<path d="M7045 1281 c-3 -6 -11 -8 -17 -5 -7 5 -8 2 -3 -6 6 -10 4 -12 -9 -7
-10 4 -15 3 -11 -3 3 -6 9 -10 13 -10 13 1 46 30 40 36 -3 3 -9 0 -13 -5z"/>
<path d="M6645 1230 c-4 -6 -11 -7 -17 -4 -7 5 -8 2 -3 -6 6 -9 2 -10 -16 -5
-13 4 -22 6 -19 3 34 -28 37 -28 58 -3 12 14 18 25 13 25 -6 0 -13 -5 -16 -10z"/>
<path d="M5966 1188 c3 -4 -15 -16 -39 -27 -39 -18 -80 -51 -63 -51 11 0 100
48 123 67 l23 18 -24 0 c-13 0 -22 -3 -20 -7z"/>
<path d="M6270 1181 c0 -6 4 -13 10 -16 6 -3 7 1 4 9 -7 18 -14 21 -14 7z"/>
<path d="M6511 1166 c-10 -12 -8 -13 8 -9 12 3 21 9 21 14 0 14 -16 11 -29 -5z"/>
<path d="M6808 1173 c7 -3 16 -2 19 1 4 3 -2 6 -13 5 -11 0 -14 -3 -6 -6z"/>
<path d="M6579 1153 c-13 -16 -12 -17 4 -4 9 7 17 15 17 17 0 8 -8 3 -21 -13z"/>
<path d="M7697 1137 c-24 -18 -44 -23 -121 -25 -79 -3 -101 0 -145 18 -28 13
-54 21 -56 18 -2 -2 -1 -36 2 -76 l6 -71 81 2 c83 3 120 16 164 57 17 16 22
17 22 5 0 -8 -9 -20 -20 -27 -21 -13 -27 -52 -10 -63 16 -10 49 13 81 58 27
38 29 42 12 45 -35 7 -37 21 -8 52 34 35 31 37 -8 7z"/>
<path d="M6410 1130 c0 -5 7 -7 15 -4 8 4 15 8 15 10 0 2 -7 4 -15 4 -8 0 -15
-4 -15 -10z"/>
<path d="M6868 373 c-16 -24 -28 -50 -28 -58 0 -17 68 -71 114 -90 19 -8 65
-15 100 -15 58 0 68 3 91 27 14 15 25 33 25 38 0 6 -29 16 -64 22 -80 14 -131
38 -176 84 l-35 36 -27 -44z"/>
</g>
</svg>
